<svg width="108" height="117" viewBox="0 0 108 117" fill="none" xmlns="http://www.w3.org/2000/svg">
<path d="M106.061 0H1C0.447715 0 0 0.447717 0 1V115.901C0 116.743 0.97643 117.208 1.63006 116.677L29.6301 93.9594C29.8641 93.7695 30 93.4842 30 93.1828V71.3767C30 70.8244 30.4477 70.3767 31 70.3767H56.6109C56.8611 70.3767 57.1023 70.2828 57.2868 70.1136L85.1062 44.5979C85.7782 43.9816 85.3421 42.861 84.4303 42.861H31C30.4477 42.861 30 42.4133 30 41.861V26.3991C30 25.8468 30.4477 25.3991 31 25.3991H75.6597C75.8804 25.3991 76.0948 25.3261 76.2697 25.1916L106.671 1.79246C107.428 1.21015 107.016 0 106.061 0Z" fill="white"/>
</svg>
