<svg width="346" height="137" viewBox="0 0 346 137" fill="none" xmlns="http://www.w3.org/2000/svg">
<path d="M106.061 19H1C0.447715 19 0 19.4477 0 20V134.901C0 135.743 0.97643 136.208 1.63006 135.677L29.6301 112.959C29.8641 112.769 30 112.484 30 112.183V90.3767C30 89.8244 30.4477 89.3767 31 89.3767H56.6109C56.8611 89.3767 57.1023 89.2828 57.2868 89.1136L85.1062 63.5979C85.7782 62.9816 85.3421 61.861 84.4303 61.861H31C30.4477 61.861 30 61.4133 30 60.861V45.3991C30 44.8468 30.4477 44.3991 31 44.3991H75.6597C75.8804 44.3991 76.0948 44.3261 76.2697 44.1916L106.671 20.7925C107.428 20.2102 107.016 19 106.061 19Z" fill="black"/>
<path d="M112 111V35.1C112 22.4 118.3 16.1 131 16.1C143.7 16.1 150 22.4 150 35.1V111C150 123.7 143.7 130 131 130C118.3 130 112 123.7 112 111ZM126 113C126 116.3 127.7 118 131 118C134.4 118 136 116.3 136 113V33.1C136 29.8 134.4 28.1 131 28.1C127.7 28.1 126 29.8 126 33.1V113ZM173.043 129.1V17.1H192.043C204.743 17.1 211.043 23.4 211.043 36.1V54.8C211.043 61.7 209.243 66.7 205.543 69.8C209.243 72.9 211.043 77.9 211.043 84.8V129H197.043V80.8C197.043 77.5 195.443 75.8 192.043 75.8H187.043V129.1H173.043ZM187.043 63.8H192.043C195.443 63.8 197.043 62.1 197.043 58.8V34.1C197.043 30.8 195.443 29.1 192.043 29.1H187.043V63.8ZM234.086 111V35.1C234.086 22.4 240.386 16.1 253.086 16.1C265.786 16.1 272.086 22.4 272.086 35.1V46H258.086V33.1C258.086 29.8 256.486 28.1 253.086 28.1C249.786 28.1 248.086 29.8 248.086 33.1V113C248.086 116.3 249.786 118 253.086 118C256.486 118 258.086 116.3 258.086 113V75.9H253.186V63.9H272.086V111C272.086 123.7 265.786 130 253.086 130C240.386 130 234.086 123.7 234.086 111ZM295.129 129V17.1H328.129V29.1H309.129V63.8H323.129V75.8H309.129V117H328.129V129H295.129Z" fill="black"/>
</svg>
